<svg width="156" height="150" viewBox="0 0 156 150" fill="none" xmlns="http://www.w3.org/2000/svg">
<path d="M132 36H120V24C120.003 19.1234 118.52 14.3618 115.747 10.3498C112.975 6.33786 109.046 3.26628 104.483 1.54457C99.9208 -0.17714 94.9419 -0.467176 90.2103 0.713136C85.4787 1.89345 81.2193 4.48802 78 8.15095C74.9323 4.66002 70.9163 2.13567 66.4405 0.884886C61.9647 -0.365901 57.2219 -0.289229 52.7888 1.10557C48.3558 2.50038 44.4235 5.15321 41.4703 8.74147C38.517 12.3297 36.67 16.6988 36.1538 21.3173C32.5098 19.1714 28.3632 18.0271 24.1344 18.0005C19.9056 17.9739 15.7449 19.0659 12.0742 21.1658C8.40352 23.2657 5.35332 26.2989 3.23287 29.9577C1.11241 33.6166 -0.00289987 37.7711 5.66247e-06 42V72C5.66247e-06 92.6869 8.21784 112.527 22.8457 127.154C37.4735 141.782 57.3131 150 78 150C98.6869 150 118.526 141.782 133.154 127.154C147.782 112.527 156 92.6869 156 72V60C155.993 53.637 153.462 47.5367 148.963 43.0374C144.463 38.5381 138.363 36.0072 132 36ZM96 12C99.1815 12.0036 102.232 13.2691 104.481 15.5187C106.731 17.7684 107.996 20.8185 108 24V36H84V24C84.0036 20.8185 85.2691 17.7684 87.5187 15.5187C89.7684 13.2691 92.8185 12.0036 96 12ZM48 24C48 20.8174 49.2643 17.7652 51.5147 15.5147C53.7652 13.2643 56.8174 12 60 12C63.1826 12 66.2348 13.2643 68.4853 15.5147C70.7357 17.7652 72 20.8174 72 24V54C72 57.1826 70.7357 60.2348 68.4853 62.4853C66.2348 64.7357 63.1826 66 60 66C56.8174 66 53.7652 64.7357 51.5147 62.4853C49.2643 60.2348 48 57.1826 48 54V24ZM12 42C12 38.8174 13.2643 35.7652 15.5147 33.5147C17.7652 31.2643 20.8174 30 24 30C27.1826 30 30.2348 31.2643 32.4853 33.5147C34.7357 35.7652 36 38.8174 36 42V54C36 57.1826 34.7357 60.2348 32.4853 62.4853C30.2348 64.7357 27.1826 66 24 66C20.8174 66 17.7652 64.7357 15.5147 62.4853C13.2643 60.2348 12 57.1826 12 54V42ZM78 138C60.9885 137.981 44.6399 131.401 32.3572 119.631C20.0745 107.862 12.8041 91.8084 12.0593 74.8133C16.8556 77.5703 22.4583 78.5823 27.9161 77.6774C33.3738 76.7725 38.3501 74.0065 42 69.8491C46.1352 74.5612 51.9535 77.4636 58.2052 77.9329C64.4569 78.4021 70.6432 76.4007 75.4354 72.3585C77.5932 75.935 80.6409 78.8914 84.2813 80.9396C80.4225 84.3131 77.3301 88.4732 75.2119 93.1406C73.0936 97.8079 71.9985 102.874 72 108C72 109.591 72.6321 111.117 73.7574 112.243C74.8826 113.368 76.4087 114 78 114C79.5913 114 81.1174 113.368 82.2427 112.243C83.3679 111.117 84 109.591 84 108C84.0072 101.637 86.5381 95.5367 91.0374 91.0374C95.5367 86.5381 101.637 84.0072 108 84C109.591 84 111.117 83.3679 112.243 82.2427C113.368 81.1174 114 79.5913 114 78C114 76.4087 113.368 74.8826 112.243 73.7574C111.117 72.6321 109.591 72 108 72H96C92.8185 71.9964 89.7684 70.7309 87.5187 68.4813C85.2691 66.2316 84.0036 63.1815 84 60V48H132C135.181 48.0036 138.232 49.2691 140.481 51.5187C142.731 53.7684 143.996 56.8185 144 60V72C143.98 89.4982 137.02 106.274 124.647 118.647C112.274 131.02 95.4982 137.98 78 138Z" fill="#00E3D2"/>
</svg>
