<svg width="current" height="current" viewBox="0 0 229 257" fill="none" xmlns="http://www.w3.org/2000/svg">
<path d="M169 60H157V48C157.003 43.1234 155.52 38.3618 152.747 34.3498C149.975 30.3379 146.046 27.2663 141.483 25.5446C136.921 23.8229 131.942 23.5328 127.21 24.7131C122.479 25.8934 118.219 28.488 115 32.1509C111.932 28.66 107.916 26.1357 103.441 24.8849C98.9647 23.6341 94.2219 23.7108 89.7888 25.1056C85.3558 26.5004 81.4235 29.1532 78.4703 32.7415C75.517 36.3297 73.67 40.6988 73.1538 45.3173C69.5098 43.1714 65.3632 42.0271 61.1344 42.0005C56.9056 41.9739 52.7449 43.0659 49.0742 45.1658C45.4035 47.2657 42.3533 50.2989 40.2329 53.9577C38.1124 57.6166 36.9971 61.7711 37 66V96C37 116.687 45.2178 136.527 59.8457 151.154C74.4735 165.782 94.3131 174 115 174C135.687 174 155.526 165.782 170.154 151.154C184.782 136.527 193 116.687 193 96V84C192.993 77.637 190.462 71.5367 185.963 67.0374C181.463 62.5381 175.363 60.0072 169 60ZM133 36C136.181 36.0036 139.232 37.2691 141.481 39.5187C143.731 41.7684 144.996 44.8185 145 48V60H121V48C121.004 44.8185 122.269 41.7684 124.519 39.5187C126.768 37.2691 129.819 36.0036 133 36ZM85 48C85 44.8174 86.2643 41.7652 88.5147 39.5147C90.7652 37.2643 93.8174 36 97 36C100.183 36 103.235 37.2643 105.485 39.5147C107.736 41.7652 109 44.8174 109 48V78C109 81.1826 107.736 84.2348 105.485 86.4853C103.235 88.7357 100.183 90 97 90C93.8174 90 90.7652 88.7357 88.5147 86.4853C86.2643 84.2348 85 81.1826 85 78V48ZM49 66C49 62.8174 50.2643 59.7652 52.5147 57.5147C54.7652 55.2643 57.8174 54 61 54C64.1826 54 67.2348 55.2643 69.4853 57.5147C71.7357 59.7652 73 62.8174 73 66V78C73 81.1826 71.7357 84.2348 69.4853 86.4853C67.2348 88.7357 64.1826 90 61 90C57.8174 90 54.7652 88.7357 52.5147 86.4853C50.2643 84.2348 49 81.1826 49 78V66ZM115 162C97.9885 161.981 81.6399 155.401 69.3572 143.631C57.0745 131.862 49.8041 115.808 49.0593 98.8133C53.8556 101.57 59.4583 102.582 64.9161 101.677C70.3738 100.772 75.3501 98.0065 79 93.8491C83.1352 98.5612 88.9535 101.464 95.2052 101.933C101.457 102.402 107.643 100.401 112.435 96.3585C114.593 99.935 117.641 102.891 121.281 104.94C117.422 108.313 114.33 112.473 112.212 117.141C110.094 121.808 108.998 126.874 109 132C109 133.591 109.632 135.117 110.757 136.243C111.883 137.368 113.409 138 115 138C116.591 138 118.117 137.368 119.243 136.243C120.368 135.117 121 133.591 121 132C121.007 125.637 123.538 119.537 128.037 115.037C132.537 110.538 138.637 108.007 145 108C146.591 108 148.117 107.368 149.243 106.243C150.368 105.117 151 103.591 151 102C151 100.409 150.368 98.8826 149.243 97.7574C148.117 96.6321 146.591 96 145 96H133C129.819 95.9964 126.768 94.7309 124.519 92.4813C122.269 90.2316 121.004 87.1815 121 84V72H169C172.181 72.0036 175.232 73.2691 177.481 75.5187C179.731 77.7684 180.996 80.8185 181 84V96C180.98 113.498 174.02 130.274 161.647 142.647C149.274 155.02 132.498 161.98 115 162Z" fill="#00E3D2"/>
<path d="M16.5898 200.719H22.4492V224.156H34.6367V229H16.5898V200.719ZM47.918 229.43C45.7695 229.43 43.9076 228.987 42.332 228.102C40.7565 227.203 39.5456 225.934 38.6992 224.293C37.8659 222.652 37.4492 220.719 37.4492 218.492C37.4492 216.331 37.8659 214.423 38.6992 212.77C39.5456 211.103 40.7435 209.814 42.293 208.902C43.8424 207.978 45.6393 207.516 47.6836 207.516C49.5846 207.516 51.2839 207.919 52.7812 208.727C54.2917 209.521 55.4766 210.725 56.3359 212.34C57.2083 213.954 57.6445 215.927 57.6445 218.258V219.898H43.1523C43.1523 220.953 43.3477 221.871 43.7383 222.652C44.1419 223.434 44.7083 224.039 45.4375 224.469C46.1797 224.885 47.0456 225.094 48.0352 225.094C48.9987 225.081 49.8255 224.885 50.5156 224.508C51.2057 224.117 51.694 223.596 51.9805 222.945H57.4883C57.2148 224.26 56.6549 225.406 55.8086 226.383C54.9622 227.346 53.862 228.095 52.5078 228.629C51.1667 229.163 49.6367 229.43 47.918 229.43ZM52.1758 216.266C52.1758 215.419 51.987 214.658 51.6094 213.98C51.2448 213.303 50.7305 212.783 50.0664 212.418C49.4023 212.04 48.6471 211.852 47.8008 211.852C46.9414 211.852 46.1602 212.047 45.457 212.438C44.7669 212.828 44.2201 213.362 43.8164 214.039C43.4128 214.716 43.1914 215.458 43.1523 216.266H52.1758ZM60.2617 223.062C60.2747 220.875 61.0104 219.28 62.4688 218.277C63.9271 217.262 65.8216 216.682 68.1523 216.539C69.5846 216.448 71.3424 216.357 73.4258 216.266V214.547C73.4128 213.661 73.1133 212.978 72.5273 212.496C71.9414 212.001 71.1081 211.747 70.0273 211.734C69.0508 211.747 68.2565 211.962 67.6445 212.379C67.0456 212.783 66.668 213.349 66.5117 214.078H61.0039C61.1211 212.828 61.5508 211.708 62.293 210.719C63.0482 209.729 64.0964 208.948 65.4375 208.375C66.7786 207.802 68.3607 207.516 70.1836 207.516C71.8112 207.516 73.3021 207.77 74.6562 208.277C76.0234 208.785 77.1172 209.579 77.9375 210.66C78.7578 211.728 79.168 213.076 79.168 214.703V229H73.6992V226.07H73.543C72.9961 227.099 72.2018 227.913 71.1602 228.512C70.1185 229.111 68.8424 229.404 67.332 229.391C65.9518 229.404 64.7279 229.169 63.6602 228.688C62.6055 228.206 61.7721 227.49 61.1602 226.539C60.5612 225.589 60.2617 224.43 60.2617 223.062ZM65.8086 222.906C65.8086 223.701 66.0951 224.312 66.668 224.742C67.2539 225.172 68.0221 225.393 68.9727 225.406C69.832 225.406 70.6003 225.23 71.2773 224.879C71.9674 224.527 72.4948 224.052 72.8594 223.453C73.237 222.841 73.4258 222.164 73.4258 221.422V219.879C71.681 219.957 70.2357 220.042 69.0898 220.133C68.0612 220.224 67.2539 220.51 66.668 220.992C66.0951 221.461 65.8086 222.099 65.8086 222.906ZM93.1133 237.398C91.1862 237.398 89.5065 237.125 88.0742 236.578C86.6419 236.031 85.5156 235.257 84.6953 234.254C83.875 233.251 83.4128 232.086 83.3086 230.758H89.0117C89.168 231.578 89.6107 232.19 90.3398 232.594C91.082 233.01 92.0456 233.219 93.2305 233.219C94.6367 233.219 95.7305 232.887 96.5117 232.223C97.306 231.572 97.7096 230.536 97.7227 229.117V225.25H97.4492C97.0195 226.227 96.2969 227.047 95.2812 227.711C94.2656 228.375 92.9701 228.701 91.3945 228.688C89.7539 228.701 88.2826 228.323 86.9805 227.555C85.6784 226.773 84.6497 225.602 83.8945 224.039C83.1393 222.464 82.7617 220.536 82.7617 218.258C82.7617 215.953 83.1458 213.993 83.9141 212.379C84.6823 210.764 85.7174 209.553 87.0195 208.746C88.3346 207.926 89.793 207.516 91.3945 207.516C92.9961 207.516 94.2852 207.887 95.2617 208.629C96.2383 209.371 96.9674 210.276 97.4492 211.344H97.6836V207.789H103.426V229.234C103.426 230.992 102.99 232.483 102.117 233.707C101.245 234.931 100.034 235.849 98.4844 236.461C96.9479 237.086 95.1576 237.398 93.1133 237.398ZM88.6992 218.277C88.6992 220.152 89.0833 221.63 89.8516 222.711C90.6328 223.792 91.7461 224.339 93.1914 224.352C94.6367 224.339 95.75 223.805 96.5312 222.75C97.3255 221.695 97.7227 220.224 97.7227 218.336C97.7227 216.422 97.3255 214.911 96.5312 213.805C95.737 212.685 94.6237 212.125 93.1914 212.125C91.7591 212.125 90.6523 212.685 89.8711 213.805C89.0898 214.924 88.6992 216.415 88.6992 218.277ZM121.512 207.789H127.293V229H121.746V225.172H121.512C121.017 226.435 120.21 227.438 119.09 228.18C117.97 228.909 116.629 229.273 115.066 229.273C113.66 229.273 112.417 228.954 111.336 228.316C110.255 227.665 109.415 226.741 108.816 225.543C108.217 224.345 107.918 222.932 107.918 221.305V207.789H113.699V220.289C113.699 221.539 114.031 222.535 114.695 223.277C115.372 224.007 116.277 224.378 117.41 224.391C118.139 224.378 118.816 224.202 119.441 223.863C120.066 223.525 120.568 223.023 120.945 222.359C121.323 221.695 121.512 220.901 121.512 219.977V207.789ZM141.395 229.43C139.246 229.43 137.384 228.987 135.809 228.102C134.233 227.203 133.022 225.934 132.176 224.293C131.342 222.652 130.926 220.719 130.926 218.492C130.926 216.331 131.342 214.423 132.176 212.77C133.022 211.103 134.22 209.814 135.77 208.902C137.319 207.978 139.116 207.516 141.16 207.516C143.061 207.516 144.76 207.919 146.258 208.727C147.768 209.521 148.953 210.725 149.812 212.34C150.685 213.954 151.121 215.927 151.121 218.258V219.898H136.629C136.629 220.953 136.824 221.871 137.215 222.652C137.618 223.434 138.185 224.039 138.914 224.469C139.656 224.885 140.522 225.094 141.512 225.094C142.475 225.081 143.302 224.885 143.992 224.508C144.682 224.117 145.171 223.596 145.457 222.945H150.965C150.691 224.26 150.132 225.406 149.285 226.383C148.439 227.346 147.339 228.095 145.984 228.629C144.643 229.163 143.113 229.43 141.395 229.43ZM145.652 216.266C145.652 215.419 145.464 214.658 145.086 213.98C144.721 213.303 144.207 212.783 143.543 212.418C142.879 212.04 142.124 211.852 141.277 211.852C140.418 211.852 139.637 212.047 138.934 212.438C138.243 212.828 137.697 213.362 137.293 214.039C136.889 214.716 136.668 215.458 136.629 216.266H145.652ZM187.488 200.719V219.078C187.488 221.122 187 222.926 186.023 224.488C185.047 226.051 183.673 227.262 181.902 228.121C180.132 228.967 178.087 229.391 175.77 229.391C173.452 229.391 171.408 228.967 169.637 228.121C167.879 227.262 166.512 226.051 165.535 224.488C164.572 222.926 164.09 221.122 164.09 219.078V200.719H169.949V218.609C169.949 219.69 170.19 220.66 170.672 221.52C171.167 222.366 171.85 223.03 172.723 223.512C173.608 223.993 174.624 224.234 175.77 224.234C176.928 224.234 177.951 223.993 178.836 223.512C179.721 223.03 180.398 222.366 180.867 221.52C181.349 220.66 181.59 219.69 181.59 218.609V200.719H187.488ZM192.254 200.719H203.348C205.444 200.719 207.254 201.122 208.777 201.93C210.301 202.737 211.46 203.863 212.254 205.309C213.061 206.741 213.465 208.388 213.465 210.25C213.465 212.138 213.055 213.805 212.234 215.25C211.427 216.682 210.249 217.796 208.699 218.59C207.163 219.384 205.327 219.781 203.191 219.781H198.113V229H192.254V200.719ZM202.254 215.055C203.947 215.055 205.229 214.625 206.102 213.766C206.987 212.893 207.423 211.721 207.41 210.25C207.423 208.805 206.987 207.659 206.102 206.812C205.229 205.966 203.947 205.536 202.254 205.523H198.113V215.055H202.254Z" fill="black"/>
</svg>
