<svg width="current" height="current" viewBox="0 0 346 114" fill="none" xmlns="http://www.w3.org/2000/svg">
<rect width="114" height="114" fill="white"/>
<path d="M89.0625 35.625H81.9375V28.5C81.9394 25.6045 81.0586 22.7773 79.4126 20.3952C77.7665 18.0131 75.4335 16.1894 72.7245 15.1671C70.0155 14.1448 67.0592 13.9726 64.2499 14.6734C61.4405 15.3742 58.9115 16.9148 57 19.0896C55.1786 17.0169 52.7941 15.5181 50.1366 14.7754C47.479 14.0327 44.663 14.0783 42.0309 14.9064C39.3988 15.7346 37.064 17.3097 35.3105 19.4402C33.557 21.5708 32.4603 24.1649 32.1538 26.9072C29.9902 25.633 27.5282 24.9536 25.0173 24.9378C22.5064 24.922 20.036 25.5704 17.8566 26.8172C15.6771 28.064 13.866 29.865 12.607 32.0374C11.348 34.2099 10.6858 36.6766 10.6875 39.1875V57C10.6875 69.2828 15.5668 81.0626 24.2521 89.7479C32.9374 98.4332 44.7172 103.313 57 103.313C69.2828 103.313 81.0626 98.4332 89.7479 89.7479C98.4332 81.0626 103.312 69.2828 103.312 57V49.875C103.308 46.097 101.806 42.4749 99.134 39.8035C96.4626 37.132 92.8405 35.6293 89.0625 35.625ZM67.6875 21.375C69.5765 21.3772 71.3875 22.1285 72.7233 23.4643C74.059 24.8 74.8103 26.611 74.8125 28.5V35.625H60.5625V28.5C60.5647 26.611 61.316 24.8 62.6518 23.4643C63.9875 22.1285 65.7985 21.3772 67.6875 21.375ZM39.1875 28.5C39.1875 26.6103 39.9382 24.7981 41.2744 23.4619C42.6106 22.1257 44.4228 21.375 46.3125 21.375C48.2022 21.375 50.0144 22.1257 51.3506 23.4619C52.6868 24.7981 53.4375 26.6103 53.4375 28.5V46.3125C53.4375 48.2022 52.6868 50.0144 51.3506 51.3506C50.0144 52.6868 48.2022 53.4375 46.3125 53.4375C44.4228 53.4375 42.6106 52.6868 41.2744 51.3506C39.9382 50.0144 39.1875 48.2022 39.1875 46.3125V28.5ZM17.8125 39.1875C17.8125 37.2978 18.5632 35.4856 19.8994 34.1494C21.2356 32.8132 23.0478 32.0625 24.9375 32.0625C26.8272 32.0625 28.6394 32.8132 29.9756 34.1494C31.3118 35.4856 32.0625 37.2978 32.0625 39.1875V46.3125C32.0625 48.2022 31.3118 50.0144 29.9756 51.3506C28.6394 52.6868 26.8272 53.4375 24.9375 53.4375C23.0478 53.4375 21.2356 52.6868 19.8994 51.3506C18.5632 50.0144 17.8125 48.2022 17.8125 46.3125V39.1875ZM57 96.1875C46.8994 96.1759 37.1924 92.2694 29.8996 85.2812C22.6067 78.2929 18.2899 68.7613 17.8477 58.6704C20.6955 60.3074 24.0221 60.9082 27.2627 60.3709C30.5032 59.8337 33.4579 58.1913 35.625 55.7229C38.0802 58.5207 41.5349 60.244 45.2468 60.5226C48.9588 60.8012 52.6319 59.6129 55.4773 57.2129C56.7585 59.3364 58.568 61.0918 60.7295 62.3079C58.4383 64.3109 56.6023 66.781 55.3445 69.5522C54.0868 72.3235 53.4366 75.3317 53.4375 78.375C53.4375 79.3198 53.8128 80.226 54.4809 80.8941C55.149 81.5622 56.0552 81.9375 57 81.9375C57.9448 81.9375 58.851 81.5622 59.5191 80.8941C60.1872 80.226 60.5625 79.3198 60.5625 78.375C60.5668 74.597 62.0695 70.9749 64.741 68.3035C67.4124 65.632 71.0345 64.1293 74.8125 64.125C75.7573 64.125 76.6635 63.7497 77.3316 63.0816C77.9997 62.4135 78.375 61.5073 78.375 60.5625C78.375 59.6177 77.9997 58.7115 77.3316 58.0434C76.6635 57.3753 75.7573 57 74.8125 57H67.6875C65.7985 56.9978 63.9875 56.2465 62.6518 54.9108C61.316 53.575 60.5647 51.764 60.5625 49.875V42.75H89.0625C90.9515 42.7522 92.7625 43.5035 94.0983 44.8393C95.434 46.175 96.1853 47.986 96.1875 49.875V57C96.1758 67.3896 92.0433 77.3503 84.6968 84.6968C77.3502 92.0433 67.3896 96.1758 57 96.1875Z" fill="#00E3D2"/>
<path d="M133.59 40.7188H139.449V64.1562H151.637V69H133.59V40.7188ZM164.918 69.4297C162.77 69.4297 160.908 68.987 159.332 68.1016C157.757 67.2031 156.546 65.9336 155.699 64.293C154.866 62.6523 154.449 60.7188 154.449 58.4922C154.449 56.3307 154.866 54.4232 155.699 52.7695C156.546 51.1029 157.743 49.8138 159.293 48.9023C160.842 47.9779 162.639 47.5156 164.684 47.5156C166.585 47.5156 168.284 47.9193 169.781 48.7266C171.292 49.5208 172.477 50.7253 173.336 52.3398C174.208 53.9544 174.645 55.9271 174.645 58.2578V59.8984H160.152C160.152 60.9531 160.348 61.8711 160.738 62.6523C161.142 63.4336 161.708 64.0391 162.438 64.4688C163.18 64.8854 164.046 65.0938 165.035 65.0938C165.999 65.0807 166.826 64.8854 167.516 64.5078C168.206 64.1172 168.694 63.5964 168.98 62.9453H174.488C174.215 64.2604 173.655 65.4062 172.809 66.3828C171.962 67.3464 170.862 68.0951 169.508 68.6289C168.167 69.1628 166.637 69.4297 164.918 69.4297ZM169.176 56.2656C169.176 55.4193 168.987 54.6576 168.609 53.9805C168.245 53.3034 167.73 52.7826 167.066 52.418C166.402 52.0404 165.647 51.8516 164.801 51.8516C163.941 51.8516 163.16 52.0469 162.457 52.4375C161.767 52.8281 161.22 53.362 160.816 54.0391C160.413 54.7161 160.191 55.4583 160.152 56.2656H169.176ZM177.262 63.0625C177.275 60.875 178.01 59.2799 179.469 58.2773C180.927 57.2617 182.822 56.6823 185.152 56.5391C186.585 56.4479 188.342 56.3568 190.426 56.2656V54.5469C190.413 53.6615 190.113 52.9779 189.527 52.4961C188.941 52.0013 188.108 51.7474 187.027 51.7344C186.051 51.7474 185.257 51.9622 184.645 52.3789C184.046 52.7826 183.668 53.349 183.512 54.0781H178.004C178.121 52.8281 178.551 51.7083 179.293 50.7188C180.048 49.7292 181.096 48.9479 182.438 48.375C183.779 47.8021 185.361 47.5156 187.184 47.5156C188.811 47.5156 190.302 47.7695 191.656 48.2773C193.023 48.7852 194.117 49.5794 194.938 50.6602C195.758 51.7279 196.168 53.0755 196.168 54.7031V69H190.699V66.0703H190.543C189.996 67.099 189.202 67.9128 188.16 68.5117C187.118 69.1107 185.842 69.4036 184.332 69.3906C182.952 69.4036 181.728 69.1693 180.66 68.6875C179.605 68.2057 178.772 67.4896 178.16 66.5391C177.561 65.5885 177.262 64.4297 177.262 63.0625ZM182.809 62.9062C182.809 63.7005 183.095 64.3125 183.668 64.7422C184.254 65.1719 185.022 65.3932 185.973 65.4062C186.832 65.4062 187.6 65.2305 188.277 64.8789C188.967 64.5273 189.495 64.0521 189.859 63.4531C190.237 62.8411 190.426 62.1641 190.426 61.4219V59.8789C188.681 59.957 187.236 60.0417 186.09 60.1328C185.061 60.224 184.254 60.5104 183.668 60.9922C183.095 61.4609 182.809 62.099 182.809 62.9062ZM210.113 77.3984C208.186 77.3984 206.507 77.125 205.074 76.5781C203.642 76.0312 202.516 75.2565 201.695 74.2539C200.875 73.2513 200.413 72.0859 200.309 70.7578H206.012C206.168 71.5781 206.611 72.1901 207.34 72.5938C208.082 73.0104 209.046 73.2188 210.23 73.2188C211.637 73.2188 212.73 72.8867 213.512 72.2227C214.306 71.5716 214.71 70.5365 214.723 69.1172V65.25H214.449C214.02 66.2266 213.297 67.0469 212.281 67.7109C211.266 68.375 209.97 68.7005 208.395 68.6875C206.754 68.7005 205.283 68.3229 203.98 67.5547C202.678 66.7734 201.65 65.6016 200.895 64.0391C200.139 62.4635 199.762 60.5365 199.762 58.2578C199.762 55.9531 200.146 53.9935 200.914 52.3789C201.682 50.7643 202.717 49.5534 204.02 48.7461C205.335 47.9258 206.793 47.5156 208.395 47.5156C209.996 47.5156 211.285 47.8867 212.262 48.6289C213.238 49.3711 213.967 50.276 214.449 51.3438H214.684V47.7891H220.426V69.2344C220.426 70.9922 219.99 72.4831 219.117 73.707C218.245 74.931 217.034 75.849 215.484 76.4609C213.948 77.0859 212.158 77.3984 210.113 77.3984ZM205.699 58.2773C205.699 60.1523 206.083 61.6302 206.852 62.7109C207.633 63.7917 208.746 64.3385 210.191 64.3516C211.637 64.3385 212.75 63.8047 213.531 62.75C214.326 61.6953 214.723 60.224 214.723 58.3359C214.723 56.4219 214.326 54.9115 213.531 53.8047C212.737 52.6849 211.624 52.125 210.191 52.125C208.759 52.125 207.652 52.6849 206.871 53.8047C206.09 54.9245 205.699 56.4154 205.699 58.2773ZM238.512 47.7891H244.293V69H238.746V65.1719H238.512C238.017 66.4349 237.21 67.4375 236.09 68.1797C234.97 68.9089 233.629 69.2734 232.066 69.2734C230.66 69.2734 229.417 68.9544 228.336 68.3164C227.255 67.6654 226.415 66.7409 225.816 65.543C225.217 64.3451 224.918 62.9323 224.918 61.3047V47.7891H230.699V60.2891C230.699 61.5391 231.031 62.5352 231.695 63.2773C232.372 64.0065 233.277 64.3776 234.41 64.3906C235.139 64.3776 235.816 64.2018 236.441 63.8633C237.066 63.5247 237.568 63.0234 237.945 62.3594C238.323 61.6953 238.512 60.901 238.512 59.9766V47.7891ZM258.395 69.4297C256.246 69.4297 254.384 68.987 252.809 68.1016C251.233 67.2031 250.022 65.9336 249.176 64.293C248.342 62.6523 247.926 60.7188 247.926 58.4922C247.926 56.3307 248.342 54.4232 249.176 52.7695C250.022 51.1029 251.22 49.8138 252.77 48.9023C254.319 47.9779 256.116 47.5156 258.16 47.5156C260.061 47.5156 261.76 47.9193 263.258 48.7266C264.768 49.5208 265.953 50.7253 266.812 52.3398C267.685 53.9544 268.121 55.9271 268.121 58.2578V59.8984H253.629C253.629 60.9531 253.824 61.8711 254.215 62.6523C254.618 63.4336 255.185 64.0391 255.914 64.4688C256.656 64.8854 257.522 65.0938 258.512 65.0938C259.475 65.0807 260.302 64.8854 260.992 64.5078C261.682 64.1172 262.171 63.5964 262.457 62.9453H267.965C267.691 64.2604 267.132 65.4062 266.285 66.3828C265.439 67.3464 264.339 68.0951 262.984 68.6289C261.643 69.1628 260.113 69.4297 258.395 69.4297ZM262.652 56.2656C262.652 55.4193 262.464 54.6576 262.086 53.9805C261.721 53.3034 261.207 52.7826 260.543 52.418C259.879 52.0404 259.124 51.8516 258.277 51.8516C257.418 51.8516 256.637 52.0469 255.934 52.4375C255.243 52.8281 254.697 53.362 254.293 54.0391C253.889 54.7161 253.668 55.4583 253.629 56.2656H262.652ZM304.488 40.7188V59.0781C304.488 61.1224 304 62.9258 303.023 64.4883C302.047 66.0508 300.673 67.2617 298.902 68.1211C297.132 68.9674 295.087 69.3906 292.77 69.3906C290.452 69.3906 288.408 68.9674 286.637 68.1211C284.879 67.2617 283.512 66.0508 282.535 64.4883C281.572 62.9258 281.09 61.1224 281.09 59.0781V40.7188H286.949V58.6094C286.949 59.6901 287.19 60.6602 287.672 61.5195C288.167 62.3659 288.85 63.0299 289.723 63.5117C290.608 63.9935 291.624 64.2344 292.77 64.2344C293.928 64.2344 294.951 63.9935 295.836 63.5117C296.721 63.0299 297.398 62.3659 297.867 61.5195C298.349 60.6602 298.59 59.6901 298.59 58.6094V40.7188H304.488ZM309.254 40.7188H320.348C322.444 40.7188 324.254 41.1224 325.777 41.9297C327.301 42.737 328.46 43.8633 329.254 45.3086C330.061 46.7409 330.465 48.388 330.465 50.25C330.465 52.138 330.055 53.8047 329.234 55.25C328.427 56.6823 327.249 57.7956 325.699 58.5898C324.163 59.3841 322.327 59.7812 320.191 59.7812H315.113V69H309.254V40.7188ZM319.254 55.0547C320.947 55.0547 322.229 54.625 323.102 53.7656C323.987 52.8932 324.423 51.7214 324.41 50.25C324.423 48.8047 323.987 47.6589 323.102 46.8125C322.229 45.9661 320.947 45.5365 319.254 45.5234H315.113V55.0547H319.254Z" fill="black"/>
</svg>
