<svg width="current" height="current" viewBox="0 0 59 59" fill="none" xmlns="http://www.w3.org/2000/svg">
<path d="M53.4688 22.1251C53.4676 21.1475 53.0788 20.2102 52.3875 19.5189C51.6962 18.8276 50.7589 18.4387 49.7813 18.4376H42.4063V11.0626C42.4051 10.085 42.0163 9.1477 41.325 8.4564C40.6337 7.7651 39.6964 7.37624 38.7188 7.37512H9.21875C8.24111 7.37624 7.30383 7.7651 6.61253 8.4564C5.92123 9.1477 5.53237 10.085 5.53125 11.0626V40.5626C5.53124 40.9107 5.62978 41.2517 5.81547 41.5462C6.00116 41.8406 6.26641 42.0765 6.58054 42.2264C6.89467 42.3764 7.24484 42.4344 7.59056 42.3937C7.93627 42.353 8.2634 42.2153 8.5341 41.9964L16.5938 35.4807L16.594 42.4064C16.5951 43.384 16.984 44.3213 17.6753 45.0126C18.3666 45.7039 19.3038 46.0928 20.2815 46.0939H41.8506L50.4661 53.0589C50.7368 53.2778 51.064 53.4155 51.4097 53.4562C51.7554 53.4969 52.1056 53.4389 52.4197 53.2889C52.7338 53.139 52.9991 52.9031 53.1848 52.6087C53.3705 52.3142 53.469 51.9732 53.469 51.6251L53.4688 22.1251ZM43.6617 42.8163C43.3336 42.5511 42.9245 42.4064 42.5026 42.4064H20.2815L20.2813 35.0314H38.7188C39.6964 35.0303 40.6337 34.6414 41.325 33.9501C42.0163 33.2588 42.4051 32.3215 42.4063 31.3439V22.1251H49.7813L49.7815 47.7636L43.6617 42.8163Z" fill="#F9F871"/>
</svg>
