<svg width="65" height="65" viewBox="0 0 65 65" fill="none" xmlns="http://www.w3.org/2000/svg">
<path d="M64.1165 34.2025C64.1344 34.0762 64.1425 33.9486 64.1407 33.821C64.1712 33.249 64.1868 32.6733 64.1875 32.0938C64.1943 24.7825 61.6925 17.6902 57.0998 12.0014C56.9811 11.8078 56.8362 11.6315 56.6692 11.4775C53.2615 7.41753 48.9054 4.26038 43.9864 2.28552C43.8725 2.23037 43.7545 2.18412 43.6334 2.1472C36.2065 -0.715785 27.9806 -0.715731 20.5537 2.14735C20.4329 2.18429 20.315 2.23048 20.2012 2.28552C15.2823 4.26034 10.9262 7.41744 7.51845 11.4773C7.3514 11.6314 7.20642 11.8077 7.08761 12.0014C2.49502 17.6902 -0.00678831 24.7825 1.38341e-05 32.0938C1.38341e-05 32.6739 0.0156594 33.2503 0.0469508 33.823C0.0452529 33.9495 0.0532897 34.0759 0.0709902 34.2012C0.414225 39.507 2.07911 44.6428 4.91409 49.1408C5.00159 49.3225 5.11105 49.4928 5.24001 49.6479C9.57607 56.2678 16.1973 61.0598 23.8408 63.1098C23.8739 63.1208 23.9082 63.1276 23.9418 63.1373C29.2859 64.5375 34.9006 64.5376 40.2448 63.1374C40.2787 63.1278 40.3134 63.1208 40.3469 63.1098C47.9902 61.0597 54.6115 56.2677 58.9475 49.6479C59.0765 49.4928 59.1859 49.3225 59.2734 49.1408C62.1082 44.6431 63.773 39.5079 64.1165 34.2025ZM13.7446 28.7275L17.808 30.0478L21.7389 42.146L19.2276 45.6024L8.53863 45.5968C6.66799 42.3484 5.49529 38.7456 5.09543 35.0185L13.7446 28.7275ZM50.443 28.7275L59.0921 35.0185C58.6922 38.7456 57.5195 42.3484 55.6489 45.5968L44.9599 45.6024L42.4486 42.146L46.3795 30.0478L50.443 28.7275ZM52.2121 13.8724L48.9171 24.0317L44.8537 25.352L34.5625 17.8749V13.6024L43.217 7.32157C46.6334 8.86428 49.6954 11.0942 52.2121 13.8724ZM20.9706 7.32157L29.625 13.6024V17.8749L19.3338 25.352L15.2704 24.0317L11.9754 13.8724C14.4921 11.0942 17.5542 8.86428 20.9706 7.32157ZM26.5331 58.6767L23.2221 48.5047L25.7334 45.0481H38.4541L40.9654 48.5047L37.6544 58.6767C33.9867 59.4411 30.2008 59.4411 26.5331 58.6767Z" fill="#00D2EA"/>
</svg>
