<svg width="65" height="65" viewBox="0 0 65 65" fill="none" xmlns="http://www.w3.org/2000/svg">
<path d="M64.5869 32.363C64.5661 27.4464 63.4157 22.6002 61.2247 18.1986C59.0337 13.7971 55.8606 9.95783 51.9504 6.97721C48.0401 3.9966 43.4973 1.95433 38.6725 1.00806C33.8477 0.0617855 28.8699 0.236806 24.1235 1.51961C19.3771 2.80242 14.9889 5.1587 11.2976 8.40659C7.60634 11.6545 4.71073 15.7071 2.83429 20.2517C0.957838 24.7963 0.15073 29.7112 0.475259 34.6172C0.799789 39.5232 2.24728 44.2891 4.706 48.5469C5.31375 49.5985 5.97975 50.6154 6.70089 51.5927C6.75253 51.6724 6.80874 51.7489 6.86924 51.8221C11.1667 57.5519 17.27 61.666 24.1935 63.5001C26.9193 64.2333 29.7295 64.6057 32.5522 64.6076C38.7682 64.5924 44.8461 62.7729 50.0479 59.3699C55.2496 55.9669 59.3515 51.1268 61.8555 45.4374C61.9732 45.2418 62.0632 45.0307 62.1229 44.8103C63.7161 40.9648 64.5519 36.8479 64.5844 32.6855C64.589 32.624 64.5938 32.5627 64.5938 32.5C64.5938 32.4537 64.5894 32.4087 64.5869 32.363ZM6.74056 41.1037C4.90213 35.5672 4.89157 29.5865 6.71044 24.0435C8.5293 18.5006 12.0813 13.6889 16.8426 10.318L22.1279 19.4725C18.171 21.7748 14.7514 24.8956 12.0977 28.626C9.44409 32.3564 7.61764 36.6105 6.74056 41.1037V41.1037ZM16.8443 54.6791C14.7053 53.1754 12.7968 51.3683 11.1787 49.3144C10.7852 44.2225 11.8354 39.1227 14.2087 34.6006C16.5821 30.0784 20.1825 26.3171 24.5966 23.7483L29.6494 32.5L16.8443 54.6791ZM57.6983 42.5745C53.4862 45.4538 48.5483 47.0884 43.4502 47.2911C38.3521 47.4938 33.3 46.2563 28.8726 43.7206L33.9254 34.9688H59.5268C59.2845 37.5785 58.6687 40.1399 57.6983 42.5745H57.6983ZM48.9684 30.0313C48.953 25.4593 47.9627 20.9432 46.0636 16.7842C44.1646 12.6253 41.4005 8.91911 37.9557 5.91303C43.6687 7.07639 48.8542 10.0515 52.7419 14.3965C56.6296 18.7414 59.0121 24.2245 59.5356 30.0313H48.9684Z" fill="#00D2EA"/>
</svg>
